<?xml version="1.0" encoding="UTF-8" standalone="no"?>
<!-- Created with Inkscape (http://www.inkscape.org/) -->

<svg
   xmlns:dc="http://purl.org/dc/elements/1.1/"
   xmlns:cc="http://creativecommons.org/ns#"
   xmlns:rdf="http://www.w3.org/1999/02/22-rdf-syntax-ns#"
   xmlns:svg="http://www.w3.org/2000/svg"
   xmlns="http://www.w3.org/2000/svg"
   xmlns:sodipodi="http://sodipodi.sourceforge.net/DTD/sodipodi-0.dtd"
   xmlns:inkscape="http://www.inkscape.org/namespaces/inkscape"
   width="116.02872mm"
   height="105.8336mm"
   viewBox="0 0 411.1254 375.00093"
   id="svg4205"
   version="1.1"
   inkscape:version="0.91 r13725"
   sodipodi:docname="01-brand-icon-Billabong.svg">
  <defs
     id="defs4207">
    <filter
       style="color-interpolation-filters:sRGB"
       inkscape:label="Invert"
       id="filter4306-8-7-5">
      <feColorMatrix
         type="hueRotate"
         values="180"
         result="color1"
         id="feColorMatrix4308-6-1-9" />
      <feColorMatrix
         values="-1 0 0 0 1 0 -1 0 0 1 0 0 -1 0 1 -0.21 -0.72 -0.07 2 0 "
         result="fbSourceGraphic"
         id="feColorMatrix4310-7-1-9" />
      <feColorMatrix
         result="fbSourceGraphicAlpha"
         in="fbSourceGraphic"
         values="0 0 0 -1 0 0 0 0 -1 0 0 0 0 -1 0 0 0 0 1 0"
         id="feColorMatrix4312-5-5-8" />
      <feColorMatrix
         id="feColorMatrix4314-5-1-9"
         type="hueRotate"
         values="180"
         result="color1"
         in="fbSourceGraphic" />
      <feColorMatrix
         id="feColorMatrix4316-7-4-7"
         values="-1 0 0 0 1 0 -1 0 0 1 0 0 -1 0 1 -0.21 -0.72 -0.07 2 0 "
         result="color2" />
    </filter>
  </defs>
  <sodipodi:namedview
     id="base"
     pagecolor="#ffffff"
     bordercolor="#666666"
     borderopacity="1.0"
     inkscape:pageopacity="0.0"
     inkscape:pageshadow="2"
     inkscape:zoom="1.4"
     inkscape:cx="170.58064"
     inkscape:cy="163.31178"
     inkscape:document-units="px"
     inkscape:current-layer="layer1"
     showgrid="false"
     fit-margin-top="0"
     fit-margin-left="0"
     fit-margin-right="0"
     fit-margin-bottom="0"
     inkscape:window-width="1920"
     inkscape:window-height="1017"
     inkscape:window-x="-8"
     inkscape:window-y="-8"
     inkscape:window-maximized="1" />
  <metadata
     id="metadata4210">
    <rdf:RDF>
      <cc:Work
         rdf:about="">
        <dc:format>image/svg+xml</dc:format>
        <dc:type
           rdf:resource="http://purl.org/dc/dcmitype/StillImage" />
        <dc:title />
      </cc:Work>
    </rdf:RDF>
  </metadata>
  <g
     inkscape:label="Layer 1"
     inkscape:groupmode="layer"
     id="layer1"
     transform="translate(1428.4199,446.56683)">
    <g
       id="g4150">
      <rect
         y="-421.92584"
         x="-1402.686"
         height="330.4259"
         width="360.00018"
         id="rect4137-3-1-3-3"
         style="fill:#c9c9c9;fill-opacity:1;fill-rule:nonzero" />
      <g
         style="fill:#cccccc;stroke:#dfdfdf;stroke-opacity:1;filter:url(#filter4306-8-7-5)"
         id="g10-4-5-1-1"
         transform="matrix(1.25,0,0,-1.25,-1394.1599,-102.8155)">
        <g
           style="fill:#cccccc;stroke:#dfdfdf;stroke-opacity:1"
           id="g12-3-2-5-5"
           transform="scale(0.1,0.1)">
          <path
             inkscape:connector-curvature="0"
             d="m 2740.84,1113.83 0,-105 -1.54,-383.303 -2737.76484,0 -1.53125375,383.303 0,141.77 C 94.4844,1176.85 236.254,1218.83 346.535,1281.85 c 178.469,99.77 320.301,147.02 462.059,147.02 147,0 299.266,-105.04 299.266,-105.04 0,0 -315.063,21.04 -315.063,-162.72 0,-178.532 178.527,-162.794 178.527,-162.794 0,0 210.066,-15.738 535.626,231.034 320.3,246.77 546.03,215.26 672.05,189.04 131.25,-26.28 162.73,-78.79 162.73,-78.79 0,0 -309.78,36.77 -309.78,-178.49 0,-210.032 367.57,-141.8 488.3,-99.78 68.3,26.25 157.5,41.99 220.59,52.5 m -2357.606,1386.18 1974.306,0 383.3,-0.6 0,-681.98 c -63.09,-10.51 -152.29,-26.28 -220.59,-47.27 -120.73,-47.25 -488.3,-110.27 -488.3,99.77 0,210 309.78,173.24 309.78,173.24 0,0 -31.48,52.51 -162.73,78.79 -126.02,26.25 -351.75,57.75 -672.05,-189.01 -325.56,-246.8 -535.626,-231.06 -535.626,-231.06 0,0 -178.527,-15.74 -178.527,168.04 0,178.5 315.063,157.5 315.063,157.5 0,0 -152.266,105 -299.266,105 -141.758,0 -283.59,-47.24 -462.059,-146.98 C 236.254,1927.66 94.4844,1880.41 0.00390625,1859.42 l 0,640.25"
             style="fill:#dfdfdf;fill-opacity:1;fill-rule:evenodd;stroke:#dfdfdf;stroke-opacity:1"
             id="path14-3-3-6-9" />
          <path
             inkscape:connector-curvature="0"
             d="m 1235.93,93.1523 28.13,0 c 28.35,0 49.12,4.8204 62.38,14.3317 13.26,9.442 19.99,24.11 19.99,43.93 0,21.559 -6.94,37.969 -20.9,49.078 -13.93,11.121 -34.48,16.672 -61.47,16.672 l -28.13,0 0,-124.0117 z m 264.98,158.5707 c 0,-20.559 3.35,-39.578 10.12,-57.18 6.7,-17.688 16.74,-33.82 30,-48.488 14.67,-15.871 31.27,-28.121 49.82,-36.7 18.48,-8.562 37.7,-12.9214 57.45,-12.9214 41.72,0 76.67,14.8004 104.88,44.4614 28.25,29.597 42.31,66.57 42.31,110.828 0,40.652 -14.19,75.269 -42.59,103.929 -28.45,28.661 -62.61,42.934 -102.59,42.934 -41.65,0 -76.87,-14.273 -105.93,-42.863 -29,-28.528 -43.47,-63.278 -43.47,-104 m 1239.26,10.84 c 0,-1.797 0.07,-4.477 0.26,-8.02 0.28,-3.629 0.4,-6.23 0.4,-8.039 0,-20.43 -1.93,-39.512 -5.62,-56.988 -3.68,-17.543 -9.38,-34.082 -16.94,-49.551 -22.44,-44.672 -53.04,-79.1525 -91.74,-103.4611 -38.71,-24.3789 -82.5,-36.49999375 -131.25,-36.49999375 -36.03,0 -69.31,6.89843375 -99.78,20.62889375 -30.54,13.7227 -58.07,34.082 -82.36,61.1328 -20.3,22.6364 -35.83,48.3474 -46.42,77.1484 -3.14,8.57 -5.89,17.281 -8.16,26.121 l 0,-175.58969 -86.32,0 -198.49,313.25769 0,-313.25769 -91.47,0 0,166.40969 c -2.07,-7.16 -4.48,-14.261 -7.23,-21.23 -11.59,-29.871 -28.8,-56.3125 -51.42,-79.4219 -22.91,-24.2383 -49.57,-42.7187 -80.03,-55.7773 -30.35,-12.92189 -62.14,-19.42189375 -95.3,-19.42189375 -35.49,0 -68.17,6.35937375 -98.1,18.94919375 -29.8,12.5899 -56.25,31.3399 -79.48,56.25 -13.93,14.8125 -25.79,30.7419 -35.49,47.7419 -2.01,-10.64 -5.16,-20.953 -9.38,-30.9294 -8.24,-19.4922 -19.72,-35.7031 -34.35,-48.4804 -14.62,-12.3204 -30.91,-21.0196 -48.99,-26.25 -18.08,-5.2227 -43.77,-7.83989 -76.78,-7.83989 l -119.43,0 0,476.11769 102.35,0 c 20.74,0 37.17,-0.797 49.43,-2.477 12.19,-1.672 23,-4.481 32.38,-8.371 26.08,-10.57 46.2,-26.039 60.13,-46.07 13.96,-20.02 20.89,-43.461 20.89,-70.309 0,-22.231 -4.11,-41.191 -12.39,-56.863 -8.37,-15.66 -20.55,-27.66 -36.6,-35.68 15.81,-4.629 29.39,-12.328 40.69,-22.91 l -0.03,5.621 c 0,26.121 3.44,50.762 10.44,74.012 6.9,23.226 17.29,44.929 31.01,65.289 23.57,34.218 53.17,60.59 88.65,79.218 35.5,18.68 74.34,27.993 116.39,27.993 31.61,0 62.01,-6.102 91.41,-18.293 29.33,-12.18 55.58,-29.797 78.69,-52.7 23.77,-23.699 41.84,-50.418 54.24,-80.089 3.15,-7.641 5.89,-15.329 8.3,-23.168 l 0,164.797 88.26,0 196.87,-304.149 0,304.149 91.15,0 0,-173.5 c 3,11.179 6.75,22.101 11.37,32.742 12.87,29.668 31.68,56.859 56.6,81.23 23.56,23.367 49.68,40.649 78.54,52.028 28.94,11.25 60.94,16.953 96.04,16.953 51.15,0 95.48,-12.473 132.79,-37.571 37.23,-25.05 65.96,-61.609 86.25,-109.832 l -113.18,0 c -13.73,17.153 -29.93,30.141 -48.55,38.711 -18.61,8.571 -39.5,12.918 -62.61,12.918 -40.71,0 -75.2,-14.719 -103.52,-44.199 -28.4,-29.32 -42.53,-65.148 -42.53,-107.199 0,-42.731 14.27,-78.75 42.93,-108.149 28.73,-29.332 63.94,-43.9294 105.8,-43.9294 28.99,0 55.39,7.7694 79.02,23.5004 23.63,15.75 41.05,36.968 52.5,63.488 l -187.1,0 0,79.809 297.26,0 z m -2701.9356,-28.25 111.1996,0 c 22.257,-0.668 42.218,-0.668 59.898,-6.489 7.973,-1.949 63.32,-20.101 63.32,-92.011 0,-55.7192 -31.937,-84.9185 -83.277,-87.4575 -9.711,-0.6719 -22.23,-0.6719 -49.051,-0.6719 l -102.0896,0 0,186.6294 z m 0,192.453 119.7696,0 c 28.527,0 56.48,0 76.449,-17.543 13.692,-11.649 23.36,-31.071 23.36,-56.989 0,-26.582 -9.668,-47.269 -22.801,-59.601 -21.699,-20.75 -53.071,-20.75 -83.867,-20.75 l -112.9106,0 0,154.883 z m -38.23049375,38.91 0,-457.50022 119.23009375,0 c 63.848,0 78.707,0 97.5,3.20702 74.161,13.6016 94.118,77.082 94.118,126.3712 0,62.211 -30.77,102.379 -80.989,115.309 -1.679,0 -3.422,0.671 -4.558,1.339 1.136,0 2.277,0 3.41,0.661 25.687,5.16 68.437,29.812 68.437,96.511 0,34.352 -11.949,64.149 -31.371,83.629 -29.636,29.813 -68.429,30.473 -99.207,30.473 l -166.57009375,0 z m 370.27709375,0 -38.226,0 0,-457.50022 38.226,0 0,457.50022 z m 477.063,-304.953 219.696,253.73 -4.71,-253.73 -214.986,0 z m 254.196,304.953 -31.95,0 -385.238,-417.3205 -31.821,0 0,417.3205 -38.797,0 0,-417.3205 -170.461,0 0,417.3205 -38.8,0 0,-457.50022 470.492,0 0,40.17972 -138.113,0 73.293,77.3395 251.385,0 -1.62,-117.51922 41.66,0 -0.03,457.50022 z m 134.39,-171.762 10.82,0 c 25.68,0 44.86,4.691 57.45,14 12.63,9.231 18.99,23.031 18.99,41.578 0,17.883 -6.03,31.141 -17.94,39.653 -11.96,8.429 -30.61,12.718 -55.92,12.718 l -13.4,0"
             style="fill:#dfdfdf;fill-opacity:1;fill-rule:evenodd;stroke:#dfdfdf;stroke-opacity:1"
             id="path16-1-7-7-8" />
        </g>
      </g>
    </g>
  </g>
</svg>
