<?xml version="1.0" encoding="UTF-8" standalone="no"?>
<svg
   xmlns:dc="http://purl.org/dc/elements/1.1/"
   xmlns:cc="http://creativecommons.org/ns#"
   xmlns:rdf="http://www.w3.org/1999/02/22-rdf-syntax-ns#"
   xmlns:svg="http://www.w3.org/2000/svg"
   xmlns="http://www.w3.org/2000/svg"
   xmlns:sodipodi="http://sodipodi.sourceforge.net/DTD/sodipodi-0.dtd"
   xmlns:inkscape="http://www.inkscape.org/namespaces/inkscape"
   viewBox="0 0 45.44582 45.408749"
   height="45.408749"
   width="45.44582"
   xml:space="preserve"
   version="1.1"
   id="svg2"
   inkscape:version="0.91 r13725"
   sodipodi:docname="03-brand-icon-Element.svg"><sodipodi:namedview
     pagecolor="#ffffff"
     bordercolor="#666666"
     borderopacity="1"
     objecttolerance="10"
     gridtolerance="10"
     guidetolerance="10"
     inkscape:pageopacity="0"
     inkscape:pageshadow="2"
     inkscape:window-width="1672"
     inkscape:window-height="835"
     id="namedview13"
     showgrid="false"
     fit-margin-top="0"
     fit-margin-left="0"
     fit-margin-right="0"
     fit-margin-bottom="0"
     inkscape:zoom="7.8259067"
     inkscape:cx="-9.1871036"
     inkscape:cy="17.048152"
     inkscape:window-x="0"
     inkscape:window-y="0"
     inkscape:window-maximized="0"
     inkscape:current-layer="svg2"
     showguides="true"
     inkscape:guide-bbox="true"><sodipodi:guide
       position="-0.12778072,54.56237"
       orientation="1,0"
       id="guide4133" /><sodipodi:guide
       position="-2.0444915,45.489939"
       orientation="0,1"
       id="guide4135" /><sodipodi:guide
       position="14.055879,42.16764"
       orientation="0,1"
       id="guide4141" /><sodipodi:guide
       position="3.5778602,37.184192"
       orientation="1,0"
       id="guide4143" /><sodipodi:guide
       position="30.667373,3.577863"
       orientation="0,1"
       id="guide4147" /></sodipodi:namedview><metadata
     id="metadata8"><rdf:RDF><cc:Work
         rdf:about=""><dc:format>image/svg+xml</dc:format><dc:type
           rdf:resource="http://purl.org/dc/dcmitype/StillImage" /><dc:title></dc:title></cc:Work></rdf:RDF></metadata><defs
     id="defs6" /><rect
     style="fill:#d7d7d7;fill-opacity:1;stroke:#000000;stroke-width:1.43208325;stroke-miterlimit:4;stroke-dasharray:none;stroke-opacity:0"
     id="rect4145"
     width="38.557693"
     height="38.429913"
     x="3.5939016"
     y="3.2571526" /><path
     id="path16"
     style="fill:#c9c9c9;fill-opacity:1;fill-rule:evenodd;stroke:none"
     d="M 42.39157,0 3.05419,0 C 1.37452,0 0,1.36 0,3.02375 L 0,42.385 c 0,1.66375 1.37452,3.02375 3.05419,3.02375 l 39.33738,0 c 1.68025,0 3.05425,-1.36 3.05425,-3.02375 l 0,-39.36125 C 45.44582,1.36 44.07182,0 42.39157,0 Z m -17.78175,17.44625 0,1.25 4.65237,1.75125 0,3.9275 -4.65237,-1.75 0,1.16375 4.65237,1.7925 0,3.92875 -4.65237,-1.79375 0,5.1575 c 4.82425,-0.8925 8.49712,-5.13875 8.49712,-10.215 0,-5.7225 -4.66412,-10.38875 -10.38375,-10.38875 -5.71975,0 -10.38387,4.66625 -10.38387,10.38875 0,5.065 3.65537,9.3025 8.46287,10.20875 l 0,-5.13875 -4.61862,1.78125 0,-3.92875 4.61862,-1.78 0,-1.16375 -4.61862,1.7375 0,-3.9275 4.61862,-1.73875 0,-1.25 -4.61862,1.78125 0,-3.92875 6.5205,-2.51375 0,-0.0137 0.0191,0.006 0.019,-0.006 0,0.0137 6.52,2.51375 0,3.92875 -4.65238,-1.79375 z m -1.88663,-8.755 c 7.68988,0 13.96188,6.27375 13.96188,13.9675 0,7.6925 -6.272,13.9675 -13.96188,13.9675 -7.6905,0 -13.962,-6.275 -13.962,-13.9675 0,-7.69375 6.2715,-13.9675 13.962,-13.9675 z M 24.59907,7.585 c 3.293,0.40875 6.26425,1.88 8.55962,4.0575 L 35.81157,8.75 C 32.81644,5.9275 28.91457,4.0575 24.59907,3.6325 l 0,3.9525 z m 10.96587,6.98625 c 1.1045,1.74625 1.86275,3.73375 2.17825,5.86125 l 3.96,0 C 41.32132,17.1675 40.11332,14.15 38.29394,11.59625 l -2.729,2.975 z m 2.26463,9.615 c -0.77,7.6525 -7.25875,13.66125 -15.10638,13.66125 -7.84775,0 -14.337,-6.00875 -15.107,-13.66125 l -3.94237,0 C 4.45657,34.005 12.71144,41.775 22.72319,41.775 c 10.01163,0 18.2665,-7.77 19.04875,-17.58875 l -3.94237,0 z M 7.70357,20.4325 c 0.3145,-2.1275 1.07325,-4.115 2.17775,-5.86125 l -2.729,-2.975 C 5.33257,14.15 4.12507,17.1675 3.74319,20.4325 l 3.96038,0 z m 4.5835,-8.79 c 2.296,-2.1775 5.26712,-3.64875 8.56012,-4.0575 l 0,-3.9525 C 16.53169,4.0575 12.62994,5.9275 9.63432,8.75 l 2.65275,2.8925"
     inkscape:connector-curvature="0" /></svg>