<?xml version="1.0" encoding="UTF-8" standalone="no"?>
<svg
   xmlns:dc="http://purl.org/dc/elements/1.1/"
   xmlns:cc="http://creativecommons.org/ns#"
   xmlns:rdf="http://www.w3.org/1999/02/22-rdf-syntax-ns#"
   xmlns:svg="http://www.w3.org/2000/svg"
   xmlns="http://www.w3.org/2000/svg"
   xmlns:sodipodi="http://sodipodi.sourceforge.net/DTD/sodipodi-0.dtd"
   xmlns:inkscape="http://www.inkscape.org/namespaces/inkscape"
   height="893.79871"
   width="709.54999"
   version="1.0"
   preserveAspectRatio="xMidYMid meet"
   viewBox="0 0 7095.4999 8937.9871"
   id="svg4674"
   inkscape:version="0.91 r13725"
   sodipodi:docname="04-brand-icon-AWSM.svg">
  <metadata
     id="metadata5216">
    <rdf:RDF>
      <cc:Work
         rdf:about="">
        <dc:format>image/svg+xml</dc:format>
        <dc:type
           rdf:resource="http://purl.org/dc/dcmitype/StillImage" />
        <dc:title></dc:title>
      </cc:Work>
    </rdf:RDF>
  </metadata>
  <defs
     id="defs5214" />
  <sodipodi:namedview
     pagecolor="#ffffff"
     bordercolor="#666666"
     borderopacity="1"
     objecttolerance="10"
     gridtolerance="10"
     guidetolerance="10"
     inkscape:pageopacity="0"
     inkscape:pageshadow="2"
     inkscape:window-width="1920"
     inkscape:window-height="1017"
     id="namedview5212"
     showgrid="false"
     inkscape:zoom="0.52444444"
     inkscape:cx="773.69462"
     inkscape:cy="449.03664"
     inkscape:window-x="-8"
     inkscape:window-y="-8"
     inkscape:window-maximized="1"
     inkscape:current-layer="svg4674"
     fit-margin-top="0"
     fit-margin-left="0"
     fit-margin-right="0"
     fit-margin-bottom="0" />
  <g
     id="layer9"
     style="fill:#cbcbcb;fill-opacity:1"
     transform="translate(-895,-0.13594176)">
    <path
       d="m 1934,6322 c -5,-5 -34,-19 -64,-33 -81,-35 -160,-122 -175,-189 -4,-19 -10,-39 -12,-43 -3,-5 -4,-102 -4,-217 2,-144 -1,-210 -9,-215 -6,-4 -9,-14 -6,-22 11,-27 -49,-135 -98,-180 -26,-24 -49,-43 -52,-43 -3,0 -17,-9 -33,-20 -15,-12 -39,-22 -54,-24 -15,-1 -29,-5 -32,-8 -3,-3 -48,-3 -100,0 -51,2 -102,1 -112,-3 -10,-4 -46,-18 -81,-31 -82,-29 -141,-89 -194,-194 -10,-19 -13,-174 -13,-690 l 0,-665 29,-45 c 16,-25 49,-67 75,-95 75,-82 134,-104 291,-106 129,-2 197,-17 232,-54 12,-14 29,-25 35,-25 7,0 19,-13 28,-30 9,-16 20,-30 25,-30 6,0 10,-4 10,-9 0,-5 14,-39 30,-75 l 30,-65 0,-979 c 0,-538 2,-987 5,-998 37,-114 101,-190 190,-225 33,-13 65,-27 71,-31 7,-5 225,-8 485,-8 529,1 532,0 620,-67 27,-20 49,-40 49,-44 0,-3 13,-23 29,-43 16,-20 32,-53 36,-73 4,-21 9,-42 12,-47 3,-5 5,-100 4,-211 -2,-135 1,-205 8,-210 6,-3 11,-14 11,-23 0,-33 55,-128 95,-164 51,-45 86,-63 155,-77 86,-19 1982,-11 2030,8 50,20 145,116 179,182 29,56 29,57 31,255 2,227 5,270 18,287 5,7 12,24 16,39 6,28 84,111 127,137 91,55 62,52 584,51 284,0 486,3 489,9 3,5 23,12 43,16 21,4 53,19 73,34 19,15 42,30 50,33 8,3 35,39 59,79 36,61 45,87 52,149 5,41 9,494 9,1005 -1,512 0,935 1,940 3,24 6,33 27,76 29,63 101,135 159,161 38,17 76,23 184,28 127,6 141,8 201,38 36,17 77,42 93,54 28,22 95,148 95,180 0,9 4,20 10,23 14,9 14,1222 0,1230 -6,4 -10,14 -9,23 3,21 -32,100 -64,147 -32,47 -152,122 -185,116 -8,-1 -20,3 -27,9 -8,7 -55,10 -127,9 -109,-3 -115,-2 -168,28 -51,28 -130,94 -130,108 0,3 -11,23 -25,43 -14,20 -25,46 -25,58 0,11 -2,23 -5,26 -3,3 -7,104 -10,224 -2,120 -8,233 -12,249 -24,89 -119,195 -215,239 l -53,25 -633,0 c -602,1 -636,0 -684,-19 -28,-10 -61,-28 -73,-40 -12,-11 -26,-20 -31,-20 -28,0 -114,-150 -122,-215 -9,-68 -4,-177 10,-200 3,-6 11,-28 18,-50 7,-22 20,-49 30,-60 10,-11 23,-30 29,-42 6,-13 16,-23 22,-23 6,0 29,-13 52,-28 90,-61 103,-62 771,-62 l 606,1 46,-28 c 25,-15 56,-34 69,-41 13,-7 36,-27 51,-45 33,-39 78,-133 70,-146 -4,-5 -2,-12 4,-16 7,-4 10,-297 10,-875 0,-578 -3,-871 -10,-875 -6,-4 -8,-11 -4,-16 8,-13 -14,-66 -43,-105 -13,-17 -23,-35 -23,-41 0,-12 -40,-48 -62,-56 -10,-4 -18,-10 -18,-15 0,-5 -15,-15 -32,-22 -18,-7 -46,-18 -63,-25 -23,-10 -136,-14 -490,-15 -253,-2 -471,-3 -485,-4 -51,-5 -182,-77 -210,-117 -19,-26 -47,-85 -64,-133 -3,-10 -6,-454 -6,-986 0,-531 -3,-970 -7,-974 -4,-4 -8,-21 -9,-39 -2,-54 -76,-181 -113,-194 -9,-4 -35,-19 -58,-35 -23,-15 -50,-28 -61,-28 -10,0 -21,-2 -24,-5 -3,-3 -436,-5 -962,-5 -1096,0 -1003,-8 -1098,95 -53,58 -82,107 -98,165 -6,21 -10,417 -10,1013 0,566 -4,985 -10,995 -5,9 -19,40 -31,67 -23,50 -75,115 -92,115 -5,0 -22,11 -39,25 -16,14 -40,25 -52,25 -13,0 -26,3 -29,7 -11,10 -32,11 -512,12 -490,2 -505,4 -585,61 -19,14 -43,30 -54,35 -10,6 -27,25 -36,42 -10,18 -22,38 -27,45 -5,7 -17,40 -27,73 -16,55 -17,131 -14,940 l 3,880 29,59 c 36,71 93,128 162,162 l 51,25 571,0 571,-1 53,-29 c 54,-29 128,-92 128,-109 0,-5 6,-15 14,-21 8,-7 21,-34 30,-62 15,-46 17,-142 17,-973 0,-884 1,-924 19,-984 28,-88 86,-164 152,-196 123,-60 79,-57 859,-56 642,1 722,3 770,18 30,9 65,25 79,35 13,9 29,17 35,17 14,0 75,62 75,76 0,5 8,21 18,34 9,14 25,50 34,80 16,50 18,123 18,847 l 0,791 -47,93 c -41,80 -56,98 -102,131 -30,20 -72,40 -93,43 -21,4 -41,11 -44,16 -3,6 -286,9 -722,9 -394,0 -721,0 -727,1 -5,1 -14,1 -18,0 -23,-4 -123,55 -162,96 -50,52 -98,142 -99,188 -1,17 -5,36 -9,42 -5,7 -7,99 -6,203 1,105 -1,194 -5,197 -3,4 -6,13 -6,22 0,52 -92,169 -160,203 -92,48 -101,48 -696,48 -309,-1 -565,-4 -570,-8 z"
       id="path5205"
       style="fill:#cbcbcb;fill-opacity:1"
       inkscape:connector-curvature="0" />
  </g>
  <path
     inkscape:connector-curvature="0"
     style="fill:#e4e4e4;fill-opacity:1;stroke:none;stroke-opacity:1"
     id="path5196"
     d="m 239,8921.8641 c -44,-28 -89,-87 -103,-135 -7,-23 -17,-56 -22,-74 -10,-33 -15,-64 -27,-183 -4,-36 -7,-256 -6,-490 0,-235 -3,-430 -8,-437 -5,-7 -5,-14 2,-18 7,-4 10,-42 9,-105 -1,-54 1,-102 4,-106 2,-5 8,-34 12,-64 24,-190 94,-326 217,-425 40,-31 84,-62 98,-67 14,-6 67,-8 123,-4 115,6 189,36 272,109 109,96 267,402 375,727 23,69 46,134 51,145 10,22 36,109 48,165 5,19 25,92 45,162 20,71 36,139 36,153 0,14 4,33 9,43 10,17 34,140 46,234 3,26 9,50 14,52 4,3 3,46 -2,97 -13,146 -58,193 -180,190 -67,-1 -85,-7 -132,-46 -57,-46 -96,-125 -140,-280 -9,-33 -23,-72 -31,-87 -9,-16 -13,-28 -9,-28 3,0 -1,-13 -10,-30 -30,-58 -67,-105 -93,-119 -33,-18 -128,-25 -137,-11 -3,5 -17,10 -31,10 -13,0 -32,4 -42,9 -25,13 -64,29 -93,40 -33,12 -62,70 -55,113 38,243 13,388 -78,446 -54,34 -121,40 -162,14 z m 326,-1135 c 47,-9 142,-53 151,-69 25,-47 -33,-237 -103,-336 -19,-28 -61,-46 -90,-39 -13,4 -33,24 -45,46 -28,49 -34,77 -55,258 -10,92 -9,104 6,128 16,25 21,26 69,21 29,-3 59,-7 67,-9 z" />
  <path
     inkscape:connector-curvature="0"
     style="fill:#e4e4e4;fill-opacity:1;stroke:none;stroke-opacity:1"
     id="path5198"
     d="m 4210,8727.8641 c -16,-4 -46,-6 -65,-3 -33,6 -170,-17 -194,-32 -6,-4 -19,-9 -30,-10 -34,-6 -105,-75 -114,-113 -22,-85 -9,-171 32,-210 24,-22 34,-23 247,-31 132,-5 234,-13 252,-20 34,-14 47,-43 47,-108 0,-79 -24,-113 -175,-238 -15,-13 -29,-23 -32,-23 -11,0 -191,-142 -249,-197 -67,-64 -164,-177 -164,-191 0,-5 -7,-15 -15,-22 -9,-7 -27,-38 -42,-69 -33,-72 -29,-161 11,-234 14,-26 26,-50 25,-52 0,-16 86,-128 154,-200 64,-68 94,-91 164,-127 83,-42 88,-43 187,-44 101,-2 204,16 254,44 12,7 22,10 22,7 0,-3 12,0 28,8 15,8 41,21 57,28 45,20 84,48 145,104 82,74 112,133 114,220 1,49 -4,67 -25,97 -35,51 -68,75 -135,98 -45,16 -60,17 -72,8 -8,-7 -26,-14 -41,-16 -14,-1 -38,-12 -53,-22 -15,-11 -31,-20 -36,-20 -5,0 -15,-7 -22,-15 -20,-25 -112,-63 -174,-73 -95,-15 -151,12 -137,66 8,28 117,129 241,222 189,142 373,341 387,419 2,14 11,46 20,71 16,44 22,194 10,250 -13,64 -31,119 -54,164 -33,64 -156,191 -215,221 -27,13 -48,22 -48,19 0,-2 -9,0 -20,6 -12,6 -71,13 -132,16 -62,3 -115,7 -118,8 -3,2 -18,-1 -35,-6 z" />
  <path
     inkscape:connector-curvature="0"
     style="fill:#e4e4e4;fill-opacity:1;stroke:none;stroke-opacity:1"
     id="path5200"
     d="m 2020,8629.8641 c -3,-5 -13,-10 -22,-10 -33,0 -222,-215 -274,-311 -8,-15 -41,-78 -74,-142 -77,-149 -84,-161 -125,-232 -39,-68 -65,-117 -88,-160 -8,-16 -24,-41 -35,-55 -10,-14 -25,-38 -33,-55 -8,-16 -23,-43 -34,-60 -18,-27 -78,-148 -115,-230 -52,-117 -54,-203 -4,-264 49,-61 193,-120 261,-107 18,3 39,7 46,8 32,4 182,166 182,198 0,6 13,30 29,53 15,23 46,78 69,122 22,44 89,176 149,294 59,118 113,216 119,218 11,4 51,-84 46,-100 -1,-4 6,-24 17,-45 11,-21 23,-56 27,-77 9,-53 79,-211 111,-253 14,-18 33,-36 42,-39 9,-3 22,-11 30,-17 19,-15 39,-19 102,-19 48,0 64,5 100,32 41,29 206,197 274,279 17,20 67,74 112,120 70,71 86,82 110,79 24,-3 30,-10 41,-53 21,-83 33,-211 38,-399 2,-99 8,-209 14,-245 5,-36 12,-81 15,-101 19,-128 225,-185 335,-93 44,38 57,69 76,185 22,136 16,273 -25,614 -6,50 -16,113 -21,140 -6,28 -19,95 -30,150 -26,135 -59,234 -107,325 -46,89 -110,180 -126,180 -6,0 -20,9 -32,20 -69,65 -255,11 -302,-88 -23,-50 -57,-99 -96,-142 -18,-19 -53,-59 -77,-89 -82,-99 -207,-224 -217,-218 -6,4 -37,60 -69,124 -55,110 -146,264 -183,307 -97,113 -232,195 -256,156 z" />
  <path
     inkscape:connector-curvature="0"
     style="fill:#e4e4e4;fill-opacity:1;stroke:none;stroke-opacity:1"
     id="path5202"
     d="m 5441,8598.8641 c -37,-32 -90,-135 -106,-205 -6,-27 -15,-56 -19,-64 -5,-9 -14,-43 -21,-75 -7,-33 -16,-69 -20,-80 -5,-11 -11,-31 -14,-45 -17,-85 -37,-164 -45,-178 -5,-9 -11,-30 -14,-47 -3,-16 -10,-43 -16,-60 -6,-16 -23,-66 -38,-110 -15,-44 -28,-82 -29,-85 0,-3 -6,-18 -12,-33 -7,-16 -12,-32 -12,-37 0,-5 -6,-21 -14,-37 -76,-150 -114,-360 -85,-468 13,-48 59,-99 114,-127 32,-17 50,-19 103,-15 37,4 79,15 99,27 19,11 38,20 44,20 10,0 124,51 179,80 19,10 94,48 165,85 72,36 141,72 155,80 14,8 36,19 50,25 14,5 32,14 40,19 40,23 99,51 109,51 5,0 26,-13 44,-30 19,-16 38,-30 42,-30 4,0 32,-20 61,-45 28,-25 55,-45 58,-45 3,0 42,-30 87,-66 45,-36 96,-72 113,-80 17,-8 44,-22 60,-31 39,-21 104,-27 139,-14 24,9 106,120 114,155 5,23 44,132 52,146 4,8 16,49 25,90 10,41 22,84 27,95 5,11 11,32 13,47 3,15 7,31 10,36 3,5 8,22 11,38 3,16 14,67 25,114 45,192 62,268 71,320 5,30 14,80 20,110 5,30 12,105 15,165 5,102 3,113 -18,150 -29,49 -107,95 -158,92 -49,-2 -104,-36 -139,-84 -50,-70 -122,-239 -136,-320 -4,-24 -11,-45 -16,-49 -5,-3 -9,-18 -9,-33 0,-15 -9,-63 -20,-107 -11,-43 -22,-88 -24,-99 -2,-11 -12,-46 -21,-79 -9,-32 -18,-64 -20,-70 -3,-16 -15,-49 -24,-66 -7,-13 -18,-16 -50,-11 -5,0 -35,21 -67,46 -31,25 -65,45 -74,45 -9,0 -21,5 -26,10 -6,6 -55,20 -110,31 -160,35 -326,13 -402,-52 -35,-31 -111,-69 -136,-69 -15,0 -23,29 -16,55 2,6 7,35 11,65 11,77 45,236 63,295 30,96 57,249 60,344 3,83 0,100 -20,140 -25,51 -58,74 -119,86 -79,15 -97,13 -129,-16 z" />
  <path
     style="fill:#fefefe"
     inkscape:connector-curvature="0"
     id="path5210"
     d="m 424,7746.8641 c -10,-22 -15,-45 -12,-51 9,-13 11,-27 17,-89 2,-26 7,-51 10,-54 3,-4 6,-13 6,-21 0,-34 34,-125 57,-152 33,-39 51,-38 96,8 38,39 99,189 112,276 6,38 4,46 -17,60 -35,25 -176,67 -215,64 -29,-2 -37,-8 -54,-41 z" />
</svg>
