<?xml version="1.0" encoding="UTF-8" standalone="no"?>
<svg
   xmlns:dc="http://purl.org/dc/elements/1.1/"
   xmlns:cc="http://creativecommons.org/ns#"
   xmlns:rdf="http://www.w3.org/1999/02/22-rdf-syntax-ns#"
   xmlns:svg="http://www.w3.org/2000/svg"
   xmlns="http://www.w3.org/2000/svg"
   xmlns:sodipodi="http://sodipodi.sourceforge.net/DTD/sodipodi-0.dtd"
   xmlns:inkscape="http://www.inkscape.org/namespaces/inkscape"
   viewBox="0 0 314.75375 62.067375"
   height="62.067375"
   width="314.75375"
   xml:space="preserve"
   version="1.1"
   id="svg2"
   inkscape:version="0.91 r13725"
   sodipodi:docname="05-brand-icon-RVCA.svg"><sodipodi:namedview
     pagecolor="#ffffff"
     bordercolor="#666666"
     borderopacity="1"
     objecttolerance="10"
     gridtolerance="10"
     guidetolerance="10"
     inkscape:pageopacity="0"
     inkscape:pageshadow="2"
     inkscape:window-width="1920"
     inkscape:window-height="1017"
     id="namedview11"
     showgrid="false"
     fit-margin-top="0"
     fit-margin-left="0"
     fit-margin-right="0"
     fit-margin-bottom="0"
     inkscape:zoom="0.92454329"
     inkscape:cx="157.375"
     inkscape:cy="31.03125"
     inkscape:window-x="-8"
     inkscape:window-y="-8"
     inkscape:window-maximized="1"
     inkscape:current-layer="svg2" /><metadata
     id="metadata8"><rdf:RDF><cc:Work
         rdf:about=""><dc:format>image/svg+xml</dc:format><dc:type
           rdf:resource="http://purl.org/dc/dcmitype/StillImage" /><dc:title></dc:title></cc:Work></rdf:RDF></metadata><defs
     id="defs6" /><g
     id="g4148"><path
       inkscape:connector-curvature="0"
       d="m 142.1175,0.0635 c 0,0 -23.85087,43.17575 -26.9275,48.78125 C 112.09763,43.23925 88.251,0.0635 88.251,0.0635 l -13.40475,0 34.34913,62.003875 11.98825,0 L 155.52,0.0635 l -13.4025,0"
       style="fill:#c9c9c9;fill-opacity:1;fill-rule:nonzero;stroke:none"
       id="path14" /><path
       inkscape:connector-curvature="0"
       d="m 280.43125,0.0635 -11.98625,0 -34.3325,62.003875 13.385,0 c 0,0 23.85125,-43.19675 26.94375,-48.789125 3.095,5.592375 26.93125,48.789125 26.93125,48.789125 l 13.38125,0 L 280.43125,0.0635"
       style="fill:#c9c9c9;fill-opacity:1;fill-rule:nonzero;stroke:none"
       id="path16" /><path
       inkscape:connector-curvature="0"
       d="M 56.955125,22.578125 C 56.653375,25.834 55.15425,28.79975 48.54,28.79975 c 0,0 -33.04775,0 -36.66695,0 0,-2.984875 0,-15.305625 0,-18.326125 3.60495,0 36.04295,0 36.04295,0 6.15775,0 8.737375,1.456 9.039125,6.57125 0.08787,1.63875 0.17575,3.6255 0,5.53325 z M 68.65875,17.84225 C 68.65875,3.59475 61.235875,0.0635 49.745625,0.0635 L 0,0.0635 l 0,62.003875 11.87305,0 c 0,0 0,-19.4775 0,-22.827125 3.4092,0 28.216325,0 30.2827,0 1.05075,1.892125 12.638625,22.820777 12.638625,22.820777 l 13.335,0 c 0,0 -8.205,-14.907277 -12.901875,-23.421402 11.9795,-2.001 13.43125,-10.191375 13.43125,-20.797375"
       style="fill:#c9c9c9;fill-opacity:1;fill-rule:nonzero;stroke:none"
       id="path18" /><path
       inkscape:connector-curvature="0"
       d="m 171.93375,41.263125 c -0.7375,-7.2475 -0.60875,-14.13475 0,-20.525875 C 172.6575,13.266125 175.75,10.409625 184.105,10.409625 l 40.55875,0 0,-10.409625 -41.365,0 c -15.88,0 -22.4075,7.106375 -23.22,23.69975 -0.25,5.0415 -0.25,10.05125 0,14.607875 0.8975,16.603988 7.34,23.701156 23.22,23.701156 l 42.77875,0 0,-10.417481 -41.9725,0 c -8.355,0 -11.42625,-2.858925 -12.17125,-10.328175"
       style="fill:#c9c9c9;fill-opacity:1;fill-rule:nonzero;stroke:none"
       id="path20" /></g></svg>