<?xml version="1.0" encoding="UTF-8" standalone="no"?>
<svg
   xmlns:dc="http://purl.org/dc/elements/1.1/"
   xmlns:cc="http://creativecommons.org/ns#"
   xmlns:rdf="http://www.w3.org/1999/02/22-rdf-syntax-ns#"
   xmlns:svg="http://www.w3.org/2000/svg"
   xmlns="http://www.w3.org/2000/svg"
   xmlns:sodipodi="http://sodipodi.sourceforge.net/DTD/sodipodi-0.dtd"
   xmlns:inkscape="http://www.inkscape.org/namespaces/inkscape"
   version="1.0"
   width="493px"
   height="400px"
   viewBox="0 0 4930 4000"
   preserveAspectRatio="xMidYMid meet"
   id="svg2"
   inkscape:version="0.91 r13725"
   sodipodi:docname="06-brand-icon-VonZipper.svg">
  <metadata
     id="metadata31">
    <rdf:RDF>
      <cc:Work
         rdf:about="">
        <dc:format>image/svg+xml</dc:format>
        <dc:type
           rdf:resource="http://purl.org/dc/dcmitype/StillImage" />
        <dc:title />
      </cc:Work>
    </rdf:RDF>
  </metadata>
  <defs
     id="defs29" />
  <sodipodi:namedview
     pagecolor="#ffffff"
     bordercolor="#666666"
     borderopacity="1"
     objecttolerance="10"
     gridtolerance="10"
     guidetolerance="10"
     inkscape:pageopacity="0"
     inkscape:pageshadow="2"
     inkscape:window-width="1920"
     inkscape:window-height="1017"
     id="namedview27"
     showgrid="false"
     inkscape:zoom="0.59"
     inkscape:cx="-3.5"
     inkscape:cy="200"
     inkscape:window-x="-8"
     inkscape:window-y="-8"
     inkscape:window-maximized="1"
     inkscape:current-layer="svg2" />
  <g
     id="layer1"
     stroke="none"
     fill="#01000b"
     style="fill:#c9c9c9;fill-opacity:1">
    <path
       d="M107 3793 c-81 -219 -107 -297 -107 -325 0 -15 9 -18 45 -18 57 0 57 0 131 212 33 92 61 168 64 168 3 0 34 -80 69 -178 35 -97 68 -183 74 -189 5 -7 31 -13 58 -13 40 0 49 3 49 18 0 9 -43 133 -97 275 l-97 257 -56 0 -55 0 -78 -207z"
       id="path5"
       style="fill:#c9c9c9;fill-opacity:1" />
    <path
       d="M781 3986 c-51 -18 -103 -67 -136 -127 -25 -46 -29 -65 -29 -129 -1 -89 22 -147 78 -203 64 -65 109 -82 211 -82 107 0 147 17 214 90 57 62 74 105 75 190 1 58 -4 80 -27 127 -34 69 -93 122 -152 137 -57 14 -191 13 -234 -3z m198 -94 c19 -9 48 -34 65 -55 42 -52 48 -143 14 -202 -27 -46 -76 -82 -125 -91 -74 -14 -170 42 -194 113 -17 52 -7 135 22 177 46 69 146 95 218 58z"
       id="path7"
       style="fill:#c9c9c9;fill-opacity:1" />
    <path
       d="M1392 3728 l3 -273 50 0 50 0 120 174 120 173 5 -173 5 -174 50 0 50 0 3 273 2 273 -52 -3 -53 -3 -120 -175 -120 -175 -3 178 -2 177 -55 0 -55 0 2 -272z"
       id="path9"
       style="fill:#c9c9c9;fill-opacity:1" />
    <path
       d="M2030 3966 c0 -25 28 -82 110 -221 61 -103 110 -189 110 -191 0 -2 -48 -5 -107 -6 l-108 -3 0 -45 0 -45 175 0 175 0 3 38 c3 33 -10 62 -100 214 -57 97 -104 180 -106 184 -2 5 45 10 105 11 l108 3 3 48 3 47 -185 0 -186 0 0 -34z"
       id="path11"
       style="fill:#c9c9c9;fill-opacity:1" />
    <path
       d="M2572 3728 l3 -273 50 0 50 0 3 273 2 272 -55 0 -55 0 2 -272z"
       id="path13"
       style="fill:#c9c9c9;fill-opacity:1" />
    <path
       d="M2902 3728 l3 -273 137 0 c122 0 139 2 164 21 65 48 90 116 73 196 -20 93 -85 137 -201 138 l-68 0 0 95 0 95 -55 0 -55 0 2 -272z m248 -43 c13 -12 20 -31 20 -55 0 -52 -26 -73 -100 -78 l-60 -4 0 82 0 82 60 -4 c39 -3 66 -11 80 -23z"
       id="path15"
       style="fill:#c9c9c9;fill-opacity:1" />
    <path
       d="M3462 3728 l3 -273 136 0 c132 0 137 1 171 27 51 39 71 87 66 162 -7 112 -72 165 -200 166 l-68 0 0 95 0 95 -55 0 -55 0 2 -272z m248 -43 c27 -24 27 -85 1 -109 -12 -11 -43 -20 -80 -23 l-61 -6 0 83 0 82 60 -4 c39 -3 66 -11 80 -23z"
       id="path17"
       style="fill:#c9c9c9;fill-opacity:1" />
    <path
       d="M4022 3728 l3 -273 155 0 155 0 0 45 0 45 -102 3 -103 3 0 59 0 59 103 3 102 3 0 50 0 50 -102 3 -103 3 0 59 0 59 103 3 102 3 3 48 3 47 -161 0 -160 0 2 -272z"
       id="path19"
       style="fill:#c9c9c9;fill-opacity:1" />
    <path
       d="M4542 3728 l3 -273 140 0 c127 0 143 2 176 22 53 33 72 84 67 177 -3 67 -7 78 -33 106 -16 17 -40 33 -52 36 -22 6 -22 7 14 63 48 75 73 120 73 131 0 6 -24 10 -54 10 l-54 0 -71 -115 c-39 -63 -71 -122 -71 -130 0 -10 10 -15 28 -15 79 0 122 -34 122 -95 0 -64 -41 -95 -126 -95 l-44 0 0 225 0 225 -60 0 -60 0 2 -272z"
       id="path21"
       style="fill:#c9c9c9;fill-opacity:1" />
    <path
       d="M1965 2980 c-327 -51 -592 -273 -807 -675 -279 -524 -354 -945 -227 -1275 84 -218 315 -452 624 -630 299 -172 756 -353 965 -382 145 -20 401 -21 507 -4 239 41 457 206 645 490 136 207 280 524 337 749 121 468 29 792 -310 1093 -277 246 -871 526 -1303 615 -115 24 -337 33 -431 19z m429 -205 c338 -76 827 -296 1096 -493 409 -301 488 -657 270 -1212 -65 -165 -164 -359 -244 -479 -318 -478 -727 -543 -1461 -231 -887 376 -1144 757 -939 1393 126 391 340 751 531 896 205 155 440 195 747 126z"
       id="path23"
       style="fill:#c9c9c9;fill-opacity:1" />
    <path
       d="M1846 2418 c-31 -48 -497 -1089 -494 -1104 4 -22 157 -88 172 -75 7 6 99 203 206 439 l194 430 191 -462 c105 -253 191 -462 190 -464 -2 -1 -50 18 -109 44 -92 41 -109 45 -121 33 -7 -8 -34 -61 -59 -118 -38 -85 -44 -107 -34 -117 18 -18 1081 -494 1102 -494 12 0 30 27 56 86 22 47 40 92 40 98 0 9 -349 892 -396 1003 -3 6 160 -63 361 -154 202 -90 369 -162 372 -159 12 12 103 220 103 235 0 13 -146 83 -576 275 -326 147 -579 255 -583 250 -14 -15 -81 -170 -81 -187 0 -9 92 -240 205 -513 113 -274 204 -498 203 -500 -5 -3 -202 86 -212 96 -6 6 -130 301 -276 657 l-267 648 -64 31 c-97 47 -106 49 -123 22z"
       id="path25"
       style="fill:#c9c9c9;fill-opacity:1" />
  </g>
</svg>
