<?xml version="1.0" encoding="UTF-8" standalone="no"?>
<!-- Created with Inkscape (http://www.inkscape.org/) -->

<svg
   xmlns:dc="http://purl.org/dc/elements/1.1/"
   xmlns:cc="http://creativecommons.org/ns#"
   xmlns:rdf="http://www.w3.org/1999/02/22-rdf-syntax-ns#"
   xmlns:svg="http://www.w3.org/2000/svg"
   xmlns="http://www.w3.org/2000/svg"
   xmlns:sodipodi="http://sodipodi.sourceforge.net/DTD/sodipodi-0.dtd"
   xmlns:inkscape="http://www.inkscape.org/namespaces/inkscape"
   width="27.51667mm"
   height="27.612032mm"
   viewBox="0 0 97.500014 97.837908"
   id="svg5619"
   version="1.1"
   inkscape:version="0.91 r13725"
   sodipodi:docname="iPhone-PLAY-button.svg">
  <defs
     id="defs5621" />
  <sodipodi:namedview
     id="base"
     pagecolor="#ffffff"
     bordercolor="#666666"
     borderopacity="1.0"
     inkscape:pageopacity="0.0"
     inkscape:pageshadow="2"
     inkscape:zoom="1.979899"
     inkscape:cx="145.43013"
     inkscape:cy="11.121224"
     inkscape:document-units="px"
     inkscape:current-layer="layer1"
     showgrid="false"
     fit-margin-top="0"
     fit-margin-left="0"
     fit-margin-right="0"
     fit-margin-bottom="0"
     inkscape:window-width="1920"
     inkscape:window-height="1017"
     inkscape:window-x="-8"
     inkscape:window-y="-8"
     inkscape:window-maximized="1" />
  <metadata
     id="metadata5624">
    <rdf:RDF>
      <cc:Work
         rdf:about="">
        <dc:format>image/svg+xml</dc:format>
        <dc:type
           rdf:resource="http://purl.org/dc/dcmitype/StillImage" />
        <dc:title></dc:title>
      </cc:Work>
    </rdf:RDF>
  </metadata>
  <g
     inkscape:label="Layer 1"
     inkscape:groupmode="layer"
     id="layer1"
     transform="translate(-91.249995,-146.3004)">
    <path
       id="path4185-86-3-4-1-9-9-0"
       d="M 140,146.3004 A 48.749565,48.918709 0 0 0 91.25,195.22033 48.749565,48.918709 0 0 0 140,244.1383 48.749565,48.918709 0 0 0 188.75,195.22033 48.749565,48.918709 0 0 0 140,146.3004 Z m 0.24219,19.95118 a 31.062191,30.052038 0 0 1 31.0625,30.05078 31.062191,30.052038 0 0 1 -31.0625,30.05273 31.062191,30.052038 0 0 1 -31.06055,-30.05273 31.062191,30.052038 0 0 1 31.06055,-30.05078 z"
       style="fill:#b3b3b3;fill-opacity:0.51931328;stroke:#ffffff;stroke-width:0;stroke-miterlimit:4;stroke-dasharray:none;stroke-opacity:1"
       inkscape:connector-curvature="0" />
    <path
       inkscape:connector-curvature="0"
       id="path5306-1-3-4-3"
       d="M 140.25305,151.33861 A 43.122707,44.132862 0 0 0 97.13,195.47142 a 43.122707,44.132862 0 0 0 43.12305,44.13281 43.122707,44.132862 0 0 0 43.12304,-44.13281 43.122707,44.132862 0 0 0 -43.12304,-44.13281 z m 0.5039,7.83398 a 36.426025,36.299755 0 0 1 36.42578,36.29883 36.426025,36.299755 0 0 1 -36.42578,36.30078 36.426025,36.299755 0 0 1 -36.42578,-36.30078 36.426025,36.299755 0 0 1 36.42578,-36.29883 z"
       style="fill:#46324f;fill-opacity:1;stroke:#000000;stroke-width:3.29039288;stroke-miterlimit:4;stroke-dasharray:none;stroke-opacity:0" />
    <ellipse
       ry="27.779196"
       rx="28.53681"
       cy="196.25026"
       cx="140.02087"
       id="path4273-7-7-0-0-4-7-0"
       style="fill:#caa5d9;fill-opacity:0.8;stroke:#ffffff;stroke-width:0;stroke-miterlimit:4;stroke-dasharray:none;stroke-opacity:1" />
    <path
       inkscape:connector-curvature="0"
       id="path4343-2-7-1-9-1-5"
       d="m 131.6707,179.06139 0.50508,31.31473 27.27412,-15.65737 z"
       style="fill:#ffffff;fill-opacity:1;fill-rule:evenodd;stroke:#000000;stroke-width:1px;stroke-linecap:butt;stroke-linejoin:miter;stroke-opacity:0" />
  </g>
</svg>
